HIERARCHY
ROOT Hips
{
    OFFSET 0.000000 0.000000 0.000000
    CHANNELS 6 Xposition Yposition Zposition Zrotation Xrotation Yrotation
    JOINT Spine
    {
        OFFSET -0.000002 7.616785 0.000008
        CHANNELS 3 Zrotation Xrotation Yrotation
        JOINT Spine1
        {
            OFFSET -0.000000 20.671221 0.000009
            CHANNELS 3 Zrotation Xrotation Yrotation
            JOINT Neck
            {
                OFFSET 0.000004 22.542088 -0.000041
                CHANNELS 3 Zrotation Xrotation Yrotation
                JOINT Head
                {
                    OFFSET -0.000014 14.528515 1.902184
                    CHANNELS 3 Zrotation Xrotation Yrotation
                    End Site
                    {
                        OFFSET 0.000000 19.022141 0.000000
                    }
                }
            }
            JOINT LeftShoulder
            {
                OFFSET 3.797832 16.121201 -0.677286
                CHANNELS 3 Zrotation Xrotation Yrotation
                JOINT LeftArm
                {
                    OFFSET 11.576586 -0.000001 0.000010
                    CHANNELS 3 Zrotation Xrotation Yrotation
                    JOINT LeftForeArm
                    {
                        OFFSET 29.906433 0.000010 0.000015
                        CHANNELS 3 Zrotation Xrotation Yrotation
                        JOINT LeftHand
                        {
                            OFFSET 24.318340 0.000004 0.000012
                            CHANNELS 3 Zrotation Xrotation Yrotation
                            JOINT LeftHandThumb1
                            {
                                OFFSET 1.987814 -2.258876 3.162430
                                CHANNELS 3 Zrotation Xrotation Yrotation
                                JOINT LeftHandThumb2
                                {
                                    OFFSET 3.002310 -0.000014 0.000003
                                    CHANNELS 3 Zrotation Xrotation Yrotation
                                    JOINT LeftHandThumb3
                                    {
                                        OFFSET 2.566081 0.000002 0.000001
                                        CHANNELS 3 Zrotation Xrotation Yrotation
                                        End Site
                                        {
                                            OFFSET 2.440626 0.000000 0.000000
                                        }
                                    }
                                }
                            }
                            JOINT LeftHandIndex1
                            {
                                OFFSET 8.131948 0.000007 3.162437
                                CHANNELS 3 Zrotation Xrotation Yrotation
                                JOINT LeftHandIndex2
                                {
                                    OFFSET 4.517748 0.000002 0.000005
                                    CHANNELS 3 Zrotation Xrotation Yrotation
                                    JOINT LeftHandIndex3
                                    {
                                        OFFSET 2.258896 -0.000007 0.000004
                                        CHANNELS 3 Zrotation Xrotation Yrotation
                                        End Site
                                        {
                                            OFFSET 2.148437 0.000000 0.000000
                                        }
                                    }
                                }
                            }
                            JOINT LeftHandMiddle1
                            {
                                OFFSET 8.131986 0.000001 1.048123
                                CHANNELS 3 Zrotation Xrotation Yrotation
                                JOINT LeftHandMiddle2
                                {
                                    OFFSET 4.969536 -0.000004 0.000006
                                    CHANNELS 3 Zrotation Xrotation Yrotation
                                    JOINT LeftHandMiddle3
                                    {
                                        OFFSET 2.710640 0.000004 0.000004
                                        CHANNELS 3 Zrotation Xrotation Yrotation
                                        End Site
                                        {
                                            OFFSET 2.578118 0.000000 0.000000
                                        }
                                    }
                                }
                            }
                            JOINT LeftHandRing1
                            {
                                OFFSET 7.680207 -0.000001 -1.048118
                                CHANNELS 3 Zrotation Xrotation Yrotation
                                JOINT LeftHandRing2
                                {
                                    OFFSET 4.517748 0.000001 0.000006
                                    CHANNELS 3 Zrotation Xrotation Yrotation
                                    JOINT LeftHandRing3
                                    {
                                        OFFSET 2.258897 -0.000007 0.000002
                                        CHANNELS 3 Zrotation Xrotation Yrotation
                                        End Site
                                        {
                                            OFFSET 2.148437 0.000000 0.000000
                                        }
                                    }
                                }
                            }
                            JOINT LeftHandPinky1
                            {
                                OFFSET 7.228409 0.000003 -3.162426
                                CHANNELS 3 Zrotation Xrotation Yrotation
                                JOINT LeftHandPinky2
                                {
                                    OFFSET 3.614217 -0.000006 0.000003
                                    CHANNELS 3 Zrotation Xrotation Yrotation
                                    JOINT LeftHandPinky3
                                    {
                                        OFFSET 1.807108 -0.000003 0.000001
                                        CHANNELS 3 Zrotation Xrotation Yrotation
                                        End Site
                                        {
                                            OFFSET 1.718745 0.000000 0.000000
                                        }
                                    }
                                }
                            }
                        }
                    }
                }
            }
            JOINT RightShoulder
            {
                OFFSET -3.797831 16.121199 -0.677304
                CHANNELS 3 Zrotation Xrotation Yrotation
                JOINT RightArm
                {
                    OFFSET -11.576584 -0.000006 -0.000005
                    CHANNELS 3 Zrotation Xrotation Yrotation
                    JOINT RightForeArm
                    {
                        OFFSET -29.906404 0.000010 0.000003
                        CHANNELS 3 Zrotation Xrotation Yrotation
                        JOINT RightHand
                        {
                            OFFSET -24.318317 -0.000004 0.000009
                            CHANNELS 3 Zrotation Xrotation Yrotation
                            JOINT RightHandThumb1
                            {
                                OFFSET -1.987792 -2.258877 3.162436
                                CHANNELS 3 Zrotation Xrotation Yrotation
                                JOINT RightHandThumb2
                                {
                                    OFFSET -3.002298 -0.000002 0.000000
                                    CHANNELS 3 Zrotation Xrotation Yrotation
                                    JOINT RightHandThumb3
                                    {
                                        OFFSET -2.566110 -0.000011 0.000005
                                        CHANNELS 3 Zrotation Xrotation Yrotation
                                        End Site
                                        {
                                            OFFSET -2.440626 0.000000 0.000000
                                        }
                                    }
                                }
                            }
                            JOINT RightHandIndex1
                            {
                                OFFSET -8.131978 -0.000007 3.162437
                                CHANNELS 3 Zrotation Xrotation Yrotation
                                JOINT RightHandIndex2
                                {
                                    OFFSET -4.517740 0.000002 0.000004
                                    CHANNELS 3 Zrotation Xrotation Yrotation
                                    JOINT RightHandIndex3
                                    {
                                        OFFSET -2.258871 0.000007 0.000004
                                        CHANNELS 3 Zrotation Xrotation Yrotation
                                        End Site
                                        {
                                            OFFSET -2.148437 0.000000 0.000000
                                        }
                                    }
                                }
                            }
                            JOINT RightHandMiddle1
                            {
                                OFFSET -8.131976 -0.000006 1.048126
                                CHANNELS 3 Zrotation Xrotation Yrotation
                                JOINT RightHandMiddle2
                                {
                                    OFFSET -4.969550 -0.000010 -0.000000
                                    CHANNELS 3 Zrotation Xrotation Yrotation
                                    JOINT RightHandMiddle3
                                    {
                                        OFFSET -2.710635 0.000005 0.000005
                                        CHANNELS 3 Zrotation Xrotation Yrotation
                                        End Site
                                        {
                                            OFFSET -2.578118 0.000000 0.000000
                                        }
                                    }
                                }
                            }
                            JOINT RightHandRing1
                            {
                                OFFSET -7.680207 -0.000006 -1.048115
                                CHANNELS 3 Zrotation Xrotation Yrotation
                                JOINT RightHandRing2
                                {
                                    OFFSET -4.517740 0.000002 0.000005
                                    CHANNELS 3 Zrotation Xrotation Yrotation
                                    JOINT RightHandRing3
                                    {
                                        OFFSET -2.258871 0.000006 0.000005
                                        CHANNELS 3 Zrotation Xrotation Yrotation
                                        End Site
                                        {
                                            OFFSET -2.148437 0.000000 0.000000
                                        }
                                    }
                                }
                            }
                            JOINT RightHandPinky1
                            {
                                OFFSET -7.228440 -0.000004 -3.162426
                                CHANNELS 3 Zrotation Xrotation Yrotation
                                JOINT RightHandPinky2
                                {
                                    OFFSET -3.614208 -0.000007 -0.000001
                                    CHANNELS 3 Zrotation Xrotation Yrotation
                                    JOINT RightHandPinky3
                                    {
                                        OFFSET -1.807104 -0.000002 -0.000002
                                        CHANNELS 3 Zrotation Xrotation Yrotation
                                        End Site
                                        {
                                            OFFSET -1.718745 0.000000 0.000000
                                        }
                                    }
                                }
                            }
                        }
                    }
                }
            }
        }
    }
    JOINT LeftUpLeg
    {
        OFFSET 9.511074 0.000001 0.000000
        CHANNELS 3 Zrotation Xrotation Yrotation
        JOINT LeftLeg
        {
            OFFSET 0.000005 -43.875637 -0.000020
            CHANNELS 3 Zrotation Xrotation Yrotation
            JOINT LeftFoot
            {
                OFFSET 0.000005 -35.354160 -0.000016
                CHANNELS 3 Zrotation Xrotation Yrotation
                JOINT LeftToeBase
                {
                    OFFSET 0.000004 -6.182192 14.266604
                    CHANNELS 3 Zrotation Xrotation Yrotation
                    End Site
                    {
                        OFFSET 0.000000 0.000000 3.804428
                    }
                }
            }
        }
    }
    JOINT RightUpLeg
    {
        OFFSET -9.511076 -0.000001 -0.000000
        CHANNELS 3 Zrotation Xrotation Yrotation
        JOINT RightLeg
        {
            OFFSET -0.000004 -43.875637 0.000005
            CHANNELS 3 Zrotation Xrotation Yrotation
            JOINT RightFoot
            {
                OFFSET 0.000001 -35.354160 -0.000018
                CHANNELS 3 Zrotation Xrotation Yrotation
                JOINT RightToeBase
                {
                    OFFSET -0.000003 -6.182193 14.266583
                    CHANNELS 3 Zrotation Xrotation Yrotation
                    End Site
                    {
                        OFFSET 0.000000 0.000000 3.804428
                    }
                }
            }
        }
    }
}
MOTION
Frames:    4
Frame Time:    0.002778
24.370583    91.740166    605.276184    4.621231    -5.893611    -155.390839    -0.365979    4.840184    1.922696    -1.829890    4.837825    2.046195    4.726081    0.703623    -18.918884    4.726080    0.703621    -18.918884    1.591027    -2.168714    -0.395068    -57.678398    12.134080    -18.160583    -54.310898    26.758783    -92.021904    11.695237    1.976897    12.265400    47.448189    38.866421    -34.355022    -34.999996    0.000008    0.000019    -0.000000    0.000000    -0.000000    0.000003    9.999995    -0.000000    -0.000000    0.000000    -0.000000    -0.000000    0.000000    -0.000000    -0.000000    0.000000    -0.000000    -0.000000    0.000000    -0.000000    -0.000000    0.000000    -0.000000    -0.000000    0.000000    -0.000000    -0.000000    0.000000    -0.000000    -0.000000    0.000000    -0.000000    0.000001    -9.999997    -0.000003    -0.000000    0.000000    -0.000000    -0.000000    0.000000    -0.000000    -7.033191    0.962051    1.084745    60.471653    -5.624780    19.829666    9.603741    22.529421    69.259201    -60.646526    13.748877    -7.629162    -47.448208    38.866428    34.355022    34.999992    -0.000003    0.000005    -0.000000    0.000000    -0.000000    -0.000001    9.999996    -0.000008    -0.000000    0.000000    -0.000000    -0.000000    0.000000    -0.000000    -0.000000    0.000000    -0.000000    -0.000000    0.000000    -0.000000    -0.000000    0.000000    -0.000000    -0.000000    0.000000    -0.000000    -0.000000    0.000000    -0.000000    -0.000000    0.000000    -0.000000    -0.000006    -9.999996    -0.000009    -0.000000    0.000000    -0.000000    -0.000000    0.000000    -0.000000    13.983338    -21.929438    0.070325    0.000003    28.998928    -0.000002    -12.102798    -14.834481    0.376024    -0.000000    -0.819991    -0.000000    -11.369261    -22.802746    -3.115966    -0.000000    33.827934    0.000000    14.449287    -13.541129    -20.479473    0.000000    -3.170568    -0.000000    
24.364965    91.751549    605.252869    4.614913    -5.869449    -155.398987    -0.368171    4.825895    1.900613    -1.840851    4.823515    2.024482    4.711893    0.681663    -18.896845    4.711895    0.681668    -18.896841    1.580180    -2.175617    -0.389613    -57.674351    12.121593    -18.156645    -54.311821    26.753637    -92.008156    11.684298    1.973695    12.261819    47.448177    38.866428    -34.355019    -34.999989    0.000002    0.000011    -0.000000    0.000000    -0.000000    -0.000004    9.999985    0.000007    -0.000000    0.000000    -0.000000    -0.000000    0.000000    -0.000000    -0.000000    0.000000    -0.000000    -0.000000    0.000000    -0.000000    -0.000000    0.000000    -0.000000    -0.000000    0.000000    -0.000000    -0.000000    0.000000    -0.000000    -0.000000    0.000000    -0.000000    -0.000007    -10.000004    0.000003    -0.000000    0.000000    -0.000000    -0.000000    0.000000    -0.000000    -7.090190    0.986382    1.070642    60.567398    -5.385046    19.563194    9.486733    22.596043    69.260262    -60.636021    13.811831    -7.664561    -47.448200    38.866428    34.355030    34.999996    0.000001    -0.000000    -0.000000    0.000000    -0.000000    0.000005    10.000001    -0.000001    -0.000000    0.000000    -0.000000    -0.000000    0.000000    -0.000000    -0.000000    0.000000    -0.000000    -0.000000    0.000000    -0.000000    -0.000000    0.000000    -0.000000    -0.000000    0.000000    -0.000000    -0.000000    0.000000    -0.000000    -0.000000    0.000000    -0.000000    -0.000000    -9.999998    -0.000004    -0.000000    0.000000    -0.000000    -0.000000    0.000000    -0.000000    13.987372    -21.854738    0.058875    -0.000000    28.934467    0.000001    -12.109645    -14.827412    0.388017    -0.000000    -0.817263    -0.000000    -11.349634    -22.738390    -3.099594    0.000003    33.772823    -0.000003    14.424237    -13.529654    -20.488298    -0.000000    -3.168313    -0.000000    
24.358442    91.763100    605.230652    4.609429    -5.846014    -155.408249    -0.369778    4.810909    1.878048    -1.848885    4.808512    2.002072    4.696522    0.661458    -18.877705    4.696521    0.661456    -18.877701    1.566285    -2.181788    -0.386218    -57.671707    12.114915    -18.153658    -54.309307    26.755056    -91.998528    11.673512    1.969220    12.252116    47.448223    38.866440    -34.355045    -35.000000    0.000004    0.000003    -0.000000    0.000000    -0.000000    -0.000004    10.000002    0.000004    -0.000000    0.000000    -0.000000    -0.000000    0.000000    -0.000000    -0.000000    0.000000    -0.000000    -0.000000    0.000000    -0.000000    -0.000000    0.000000    -0.000000    -0.000000    0.000000    -0.000000    -0.000000    0.000000    -0.000000    -0.000000    0.000000    -0.000000    0.000003    -9.999993    -0.000003    -0.000000    0.000000    -0.000000    -0.000000    0.000000    -0.000000    -7.140435    1.001072    1.057084    60.666668    -5.163236    19.298321    9.370929    22.651951    69.273064    -60.638550    13.859727    -7.687945    -47.448212    38.866417    34.355034    34.999996    -0.000001    -0.000000    -0.000000    0.000000    -0.000000    -0.000000    10.000001    0.000004    -0.000000    0.000000    -0.000000    -0.000000    0.000000    -0.000000    -0.000000    0.000000    -0.000000    -0.000000    0.000000    -0.000000    -0.000000    0.000000    -0.000000    -0.000000    0.000000    -0.000000    -0.000000    0.000000    -0.000000    -0.000000    0.000000    -0.000000    0.000003    -10.000001    0.000007    -0.000000    0.000000    -0.000000    -0.000000    0.000000    -0.000000    13.990064    -21.780348    0.048680    0.000003    28.867344    -0.000000    -12.105847    -14.816417    0.411777    0.000000    -0.815291    0.000003    -11.330578    -22.672380    -3.084693    0.000001    33.711632    -0.000002    14.400139    -13.518077    -20.494122    -0.000000    -3.166950    -0.000000    
24.352364    91.774605    605.207153    4.603425    -5.823045    -155.415619    -0.371648    4.796318    1.856646    -1.858235    4.793910    1.980921    4.682240    0.640989    -18.853891    4.682240    0.640994    -18.853891    1.553934    -2.187532    -0.383516    -57.666695    12.112039    -18.152775    -54.307678    26.759615    -91.991211    11.657719    1.962812    12.238631    47.448223    38.866428    -34.355038    -35.000011    -0.000011    0.000007    -0.000000    0.000000    -0.000000    0.000004    10.000004    -0.000007    -0.000000    0.000000    -0.000000    -0.000000    0.000000    -0.000000    -0.000000    0.000000    -0.000000    -0.000000    0.000000    -0.000000    -0.000000    0.000000    -0.000000    -0.000000    0.000000    -0.000000    -0.000000    0.000000    -0.000000    -0.000000    0.000000    -0.000000    0.000007    -10.000002    -0.000003    -0.000000    0.000000    -0.000000    -0.000000    0.000000    -0.000000    -7.196836    1.025225    1.044557    60.758419    -4.924239    19.037569    9.287837    22.707996    69.273346    -60.630737    13.895845    -7.708547    -47.448227    38.866428    34.355042    35.000008    -0.000001    -0.000009    -0.000000    0.000000    -0.000000    -0.000006    9.999999    -0.000005    -0.000000    0.000000    -0.000000    -0.000000    0.000000    -0.000000    -0.000000    0.000000    -0.000000    -0.000000    0.000000    -0.000000    -0.000000    0.000000    -0.000000    -0.000000    0.000000    -0.000000    -0.000000    0.000000    -0.000000    -0.000000    0.000000    -0.000000    -0.000006    -9.999999    -0.000007    -0.000000    0.000000    -0.000000    -0.000000    0.000000    -0.000000    13.992495    -21.706194    0.036694    -0.000000    28.799578    -0.000003    -12.113971    -14.809131    0.423671    -0.000000    -0.812780    -0.000001    -11.311626    -22.606184    -3.067473    0.000001    33.652267    -0.000000    14.375651    -13.509201    -20.502497    0.000000    -3.164991    -0.000000    
